<?xml version="1.0" encoding="utf-8"?>
<!-- Generator: Adobe Illustrator 17.0.0, SVG Export Plug-In . SVG Version: 6.00 Build 0)  -->
<!DOCTYPE svg PUBLIC "-//W3C//DTD SVG 1.1//EN" "http://www.w3.org/Graphics/SVG/1.1/DTD/svg11.dtd">
<svg version="1.1" id="Laag_1" xmlns="http://www.w3.org/2000/svg" xmlns:xlink="http://www.w3.org/1999/xlink" x="0px" y="0px"
	 width="85.04px" height="85.04px" viewBox="0 0 85.04 85.04" enable-background="new 0 0 85.04 85.04" xml:space="preserve">
<g>
	<g>
		<path fill="#FFFFFF" d="M2.532,17.273c0-4.91,0-9.82,0-14.735c26.763,0,53.527,0,80.29,0c0,4.915,0,9.825,0,14.735
			c-0.56-0.482-1.053-1.09-1.691-1.424c-3.877-2.029-8.098-2.847-12.399-3.236c-5.408-0.49-10.797-0.275-16.113,0.932
			c-1.293,0.294-2.568,0.681-3.826,1.102c-0.895,0.299-1.309,1.249-1.028,2.097c0.279,0.844,1.167,1.328,2.069,1.108
			c0.354-0.086,0.69-0.251,1.045-0.32c2.656-0.514,5.297-1.162,7.977-1.48c3.636-0.431,7.299-0.326,10.942,0.119
			c3.063,0.375,6.059,1.012,8.918,2.221c0.594,0.251,0.78,0.59,0.779,1.233c-0.019,16.021-0.015,32.042-0.016,48.064
			c0,0.273-0.024,0.547-0.039,0.88c-0.33-0.112-0.566-0.219-0.814-0.272c-2.544-0.541-5.068-1.244-7.639-1.568
			c-3.653-0.46-7.338-0.351-11.016-0.07c-5.216,0.399-10.326,1.315-15.365,2.731c-1.157,0.325-2.561,0.379-3.703,0.048
			c-7.299-2.111-14.728-3.097-22.315-2.972c-2.927,0.048-5.837,0.282-8.693,0.964c-1.329,0.318-2.642,0.705-4.021,1.076
			c0-0.349,0-0.659,0-0.97c0-15.917,0.008-31.833-0.023-47.75c-0.002-0.829,0.274-1.179,1.006-1.468
			c4.232-1.673,8.671-2.229,13.161-2.443c3.76-0.179,7.52-0.061,11.256,0.456c3.598,0.498,7.12,1.284,10.476,2.733
			c0.681,0.294,0.952,0.632,0.95,1.422c-0.03,13.93-0.022,27.861-0.022,41.791c0,0.235-0.008,0.471,0.004,0.706
			c0.048,0.918,0.786,1.639,1.667,1.635c0.899-0.003,1.608-0.695,1.665-1.634c0.016-0.26,0.005-0.523,0.005-0.784
			c0-14.035-0.048-28.07,0.052-42.104c0.015-2.096-0.697-3.156-2.552-3.956c-5.747-2.476-11.788-3.427-17.967-3.705
			c-3.68-0.166-7.361-0.064-11.016,0.462c-3.466,0.498-6.87,1.238-10.043,2.796C3.722,16.072,2.926,16.424,2.532,17.273z"/>
		<path d="M2.532,17.273c0.394-0.848,1.19-1.201,1.961-1.579c3.173-1.558,6.577-2.297,10.043-2.796
			c3.655-0.526,7.336-0.628,11.016-0.462c6.179,0.279,12.22,1.229,17.967,3.705c1.855,0.799,2.567,1.859,2.552,3.956
			c-0.1,14.034-0.052,28.069-0.052,42.104c0,0.261,0.011,0.523-0.005,0.784c-0.057,0.939-0.766,1.631-1.665,1.634
			c-0.881,0.003-1.619-0.717-1.667-1.635c-0.012-0.235-0.004-0.47-0.004-0.706c0-13.93-0.008-27.861,0.022-41.791
			c0.002-0.79-0.269-1.128-0.95-1.422c-3.355-1.449-6.878-2.235-10.476-2.733c-3.736-0.517-7.497-0.635-11.256-0.456
			c-4.49,0.214-8.93,0.77-13.161,2.443c-0.732,0.289-1.007,0.639-1.006,1.468c0.031,15.917,0.023,31.833,0.023,47.75
			c0,0.311,0,0.621,0,0.97c1.378-0.371,2.691-0.758,4.021-1.076c2.855-0.683,5.765-0.916,8.693-0.964
			c7.586-0.125,15.016,0.861,22.315,2.972c1.143,0.331,2.546,0.277,3.703-0.048c5.039-1.416,10.15-2.332,15.365-2.731
			c3.678-0.281,7.363-0.39,11.016,0.07c2.572,0.324,5.096,1.026,7.639,1.568c0.248,0.053,0.484,0.16,0.814,0.272
			c0.015-0.334,0.039-0.607,0.039-0.88c0.002-16.021-0.002-32.042,0.016-48.064c0.001-0.642-0.185-0.981-0.779-1.233
			c-2.859-1.209-5.855-1.846-8.918-2.221c-3.642-0.445-7.306-0.55-10.942-0.119c-2.68,0.318-5.321,0.966-7.977,1.48
			c-0.356,0.069-0.692,0.234-1.045,0.32c-0.903,0.219-1.79-0.264-2.069-1.108c-0.28-0.848,0.134-1.798,1.028-2.097
			c1.258-0.421,2.534-0.808,3.826-1.102c5.316-1.207,10.705-1.421,16.113-0.932c4.3,0.389,8.522,1.207,12.399,3.236
			c0.637,0.334,1.131,0.942,1.691,1.424c0,18.191,0,36.381,0,54.572c-0.805,1.16-1.582,1.441-2.616,0.858
			c-3.239-1.827-6.8-2.419-10.426-2.735c-3.468-0.302-6.934-0.184-10.4,0.128c-4.712,0.424-9.341,1.253-13.885,2.588
			c-1.854,0.545-3.785,0.555-5.633,0.003c-4.339-1.297-8.768-2.104-13.262-2.551c-4.189-0.416-8.389-0.525-12.583-0.017
			c-2.963,0.36-5.863,0.963-8.527,2.391c-1.401,0.751-2.035,0.614-2.957-0.666C2.532,53.654,2.532,35.463,2.532,17.273z"/>
		<path fill="#FFFFFF" d="M2.532,71.845c0.922,1.281,1.557,1.417,2.957,0.666c2.664-1.429,5.564-2.032,8.527-2.391
			c4.194-0.509,8.394-0.4,12.583,0.017c4.494,0.446,8.922,1.254,13.262,2.551c1.848,0.552,3.779,0.542,5.633-0.003
			c4.544-1.335,9.172-2.164,13.885-2.588c3.466-0.312,6.932-0.431,10.4-0.128c3.626,0.316,7.188,0.908,10.426,2.735
			c1.035,0.584,1.811,0.302,2.616-0.858c0,3.659,0,7.318,0,10.977c-26.763,0-53.527,0-80.29,0
			C2.532,79.163,2.532,75.504,2.532,71.845z"/>
	</g>
</g>
</svg>
